<?xml version="1.0" encoding="utf-8"?>
<!-- Generator: Adobe Illustrator 19.2.0, SVG Export Plug-In . SVG Version: 6.00 Build 0)  -->
<svg version="1.1" id="Layer_1" xmlns="http://www.w3.org/2000/svg" xmlns:xlink="http://www.w3.org/1999/xlink" x="0px" y="0px"
	 viewBox="0 0 406.9 112.9" style="enable-background:new 0 0 406.9 112.9;" xml:space="preserve">
<style type="text/css">
	.st0{fill:#262223;}
	.st1{fill:#F9B382;}
	.st2{fill:#F89A57;}
	.st3{fill:#EE7423;}
</style>
<g>
	<path class="st0" d="M179.4,34.3v45.3h-7.1V55.7h-26.8v23.9h-7.1V34.3h7.1v15.2h26.8V34.3H179.4z"/>
	<path class="st0" d="M196.4,79.6c-3.3,0-5.9-0.9-7.9-2.8c-2-1.9-3-4.2-3-7.2v-2.4c0-3,1-5.4,3-7.2c1.9-1.9,4.5-2.8,7.9-2.8h18.5V57
		c0-3.6-2-5.4-6-5.4h-20.6v-6h20.4c4.3,0,7.5,1.1,9.8,3.2c2.3,2.1,3.4,5.1,3.4,9.1v12c0,3.1-1,5.5-3.1,7.3c-1.9,1.6-4.5,2.4-8,2.4
		H196.4z M209.4,63.2h-11.2c-3.6,0-5.4,1.5-5.4,4.6v1.1c0,3,1.8,4.6,5.4,4.6h11.2c3.7,0,5.6-1.5,5.6-4.6v-1.1
		C214.9,64.7,213.1,63.2,209.4,63.2z"/>
	<path class="st0" d="M242.8,45.5h7c4.4,0,7.9,1.3,10.4,3.8c2.5,2.6,3.8,6.1,3.8,10.7v19.5h-7.1V60.4c0-2.8-0.6-4.9-1.7-6.2
		c-1.4-1.7-3.4-2.5-6-2.5h-6c-2.5,0-4.5,0.8-5.9,2.5c-1,1.3-1.5,3.4-1.5,6.2v19.2h-7.1V60.1c0-4.6,1.3-8.1,3.8-10.7
		C234.9,46.8,238.4,45.5,242.8,45.5z"/>
	<path class="st0" d="M296.6,75c-2.5,3-5.7,4.6-9.4,4.6h-4.4c-3.9,0-7.1-1.2-9.4-3.7c-2.2-2.3-3.3-5.6-3.3-9.9V45.5h7V66
		c0,2.5,0.5,4.3,1.6,5.4c1.2,1.3,2.8,2,4.8,2h3.1c2,0,3.6-0.7,4.8-2c1.1-1.1,1.7-3,1.7-5.4V45.5h7V66c0,2.5,0.5,4.3,1.6,5.4
		c1.2,1.3,2.8,2,4.8,2h3.1c2,0,3.6-0.7,4.8-2c1.1-1.1,1.7-3,1.7-5.4V45.5h7V66c0,4.3-1.1,7.5-3.4,9.9c-2.3,2.5-5.5,3.7-9.5,3.7h-4.3
		C302.2,79.6,299.1,78.1,296.6,75z"/>
	<path class="st0" d="M343.9,51.7c-2.5,0-4.5,0.8-5.9,2.5c-1,1.3-1.5,3.4-1.5,6.2v19.2h-7.1V34.2h7.1v13.4c2-1.4,4.4-2.1,7-2.1h7
		c4.4,0,7.9,1.3,10.4,3.8c2.5,2.6,3.8,6.1,3.8,10.7v19.5h-7.1V60.4c0-2.8-0.5-4.9-1.7-6.2c-1.4-1.7-3.4-2.5-6-2.5H343.9z"/>
	<path class="st0" d="M381.3,79.6c-3.3,0-5.9-0.9-7.9-2.8c-2-1.9-3-4.2-3-7.2v-2.4c0-3,1-5.4,3-7.2c1.9-1.9,4.6-2.8,7.9-2.8h18.5V57
		c0-3.6-2-5.4-6-5.4h-20.6v-6h20.4c4.3,0,7.5,1.1,9.8,3.2c2.3,2.1,3.4,5.1,3.4,9.1v12c0,3.1-1,5.5-3.1,7.3c-1.9,1.6-4.6,2.4-8,2.4
		H381.3z M394.2,63.2H383c-3.6,0-5.4,1.5-5.4,4.6v1.1c0,3,1.8,4.6,5.4,4.6h11.2c3.7,0,5.6-1.5,5.6-4.6v-1.1
		C399.8,64.7,397.9,63.2,394.2,63.2z"/>
</g>
<g>
	<path class="st1" d="M45,56.6c-1.6-14.4,13.5-25.9,33.6-25.7c20.1,0.2,37.8,11.9,39.3,26.3c1.6,14.4-13.5,25.9-33.6,25.7
		C64.2,82.8,46.6,71,45,56.6 M121.7,61.1c-1.8-17.8-22.1-32.4-45.3-32.6c-23.2-0.2-40.5,14.1-38.7,31.9C39.5,78.2,59.8,92.8,83,93
		C106.2,93.2,123.5,78.9,121.7,61.1"/>
	<path class="st2" d="M86.7,93.4c-11.4,12-29.8,12.9-41,2.2c-11.2-10.7-11-29.1,0.4-41c11.4-11.9,29.8-12.9,41-2.2
		C98.3,63.1,98.1,81.4,86.7,93.4 M44.4,54.2c-13.3,13.9-13.5,35.2-0.5,47.7c13,12.4,34.3,11.3,47.6-2.6C104.8,85.4,105,64.1,92,51.6
		C79,39.2,57.7,40.3,44.4,54.2"/>
	<path class="st3" d="M45.6,9.5c23.8-8.9,47.3,0.1,52.5,20.1c5.2,20-9.8,43.5-33.6,52.4C40.7,90.9,17.2,81.9,12,61.9
		C6.8,41.9,21.8,18.4,45.6,9.5 M23.5,17.2C-1.1,36.7-7.4,65,9.5,80.3c16.9,15.4,50.6,12,75.3-7.5c24.7-19.5,30.9-47.8,14-63.2
		C81.8-5.7,48.2-2.4,23.5,17.2"/>
</g>
<g>
	<path class="st0" d="M146.4,112.9v-18h-8.2V92h19.7v2.9h-8.2v18H146.4z"/>
	<path class="st0" d="M175.9,102.9c0,1.3-0.5,2.4-1.4,3.3c-0.9,0.9-2.1,1.3-3.6,1.3h-8.5v0.1c0,1.7,0.9,2.5,2.8,2.5h10v2.8h-10
		c-1.9,0-3.4-0.5-4.5-1.5c-1-1-1.6-2.4-1.6-4.2v-5.4c0-1.4,0.5-2.5,1.4-3.3c0.9-0.9,2.1-1.3,3.7-1.3h6.7c1.5,0,2.8,0.4,3.7,1.3
		c0.9,0.9,1.4,2,1.4,3.3V102.9z M170.1,104.7c1.7,0,2.5-0.7,2.5-2.1v-0.5c0-1.4-0.8-2.1-2.5-2.1h-5.2c-1.7,0-2.5,0.7-2.5,2.1v0.5
		c0,1.4,0.8,2.1,2.5,2.1H170.1z"/>
	<path class="st0" d="M185,112.9c-1.9,0-3.5-0.6-4.6-1.7c-1.1-1.1-1.7-2.7-1.7-4.7v-2.9c0-2.1,0.6-3.6,1.7-4.7
		c1.1-1.1,2.6-1.7,4.6-1.7h10.4v2.8h-10.2c-1.2,0-2,0.4-2.6,1.1c-0.4,0.6-0.6,1.5-0.6,2.7v2.6c0,1.2,0.2,2,0.6,2.6
		c0.6,0.7,1.4,1.1,2.6,1.1h10.2v2.8H185z"/>
	<path class="st0" d="M202.3,101.2c-0.5,0.6-0.7,1.6-0.7,2.9v8.8h-3.3V92h3.3v6.2c0.9-0.6,2-1,3.2-1h3.2c2,0,3.6,0.6,4.8,1.8
		c1.2,1.2,1.7,2.8,1.7,4.9v9h-3.3v-8.8c0-1.3-0.3-2.3-0.8-2.9c-0.6-0.8-1.6-1.2-2.8-1.2H205C203.9,100,203,100.4,202.3,101.2z"/>
	<path class="st0" d="M225.4,112.9h-2c-1.8,0-3.3-0.6-4.3-1.7c-1-1.1-1.5-2.6-1.5-4.6v-9.4h3.2v9.5c0,1.1,0.2,2,0.7,2.5
		c0.6,0.6,1.3,0.9,2.2,0.9h1.4c0.9,0,1.7-0.3,2.2-0.9c0.5-0.5,0.8-1.4,0.8-2.5v-9.5h3.2v9.5c0,1.1,0.2,2,0.7,2.5
		c0.6,0.6,1.3,0.9,2.2,0.9h1.4c0.9,0,1.7-0.3,2.2-0.9c0.5-0.5,0.8-1.4,0.8-2.5v-9.5h3.2v9.4c0,2-0.5,3.5-1.6,4.6
		c-1.1,1.1-2.5,1.7-4.4,1.7h-2c-1.7,0-3.1-0.7-4.3-2.1C228.5,112.2,227.1,112.9,225.4,112.9z"/>
	<path class="st0" d="M248.3,95.5c-0.4,0.4-0.9,0.5-1.5,0.5c-0.6,0-1.1-0.2-1.5-0.5c-0.4-0.4-0.6-0.8-0.6-1.4c0-0.6,0.2-1.1,0.6-1.5
		c0.4-0.4,0.9-0.6,1.5-0.6c0.6,0,1.1,0.2,1.5,0.6c0.4,0.4,0.6,0.9,0.6,1.5C248.9,94.6,248.7,95.1,248.3,95.5z M245.1,97.2h3.3v15.7
		h-3.3V97.2z"/>
	<path class="st0" d="M261.3,97.2c2,0,3.6,0.6,4.8,1.8c1.2,1.2,1.7,2.8,1.7,4.9v9h-3.3v-8.8c0-1.3-0.3-2.3-0.8-2.9
		c-0.6-0.8-1.6-1.2-2.8-1.2h-2.8c-1.2,0-2.1,0.4-2.7,1.2c-0.5,0.6-0.7,1.6-0.7,2.9v8.8h-3.3v-9c0-2.1,0.6-3.8,1.7-4.9
		c1.2-1.2,2.8-1.8,4.8-1.8H261.3z"/>
	<path class="st0" d="M290.4,92.2c0.3,0.2,0.6,0.5,0.9,1l9.9,19.6h-3.6l-2.6-5.3h-11.2l-2.6,5.3h-3.6l9.9-19.6
		c0.3-0.5,0.5-0.8,0.9-1c0.3-0.2,0.7-0.3,1-0.3C289.7,91.9,290.1,92,290.4,92.2z M289.4,96.5l-4.2,8.4h8.4L289.4,96.5z"/>
	<path class="st0" d="M319.4,97.2h2c1.8,0,3.3,0.6,4.4,1.7c1.1,1.1,1.6,2.6,1.6,4.6v9.4h-3.2v-9.5c0-1.1-0.3-2-0.8-2.5
		c-0.6-0.6-1.3-0.9-2.2-0.9h-1.4c-0.9,0-1.6,0.3-2.2,0.9c-0.5,0.5-0.7,1.4-0.7,2.5v9.5h-3.2v-9.5c0-1.1-0.3-2-0.8-2.5
		c-0.6-0.6-1.3-0.9-2.2-0.9h-1.4c-0.9,0-1.6,0.3-2.2,0.9c-0.5,0.5-0.7,1.4-0.7,2.5v9.5h-3.2v-9.4c0-2,0.5-3.5,1.5-4.6
		c1.1-1.1,2.5-1.7,4.3-1.7h2c1.7,0,3.2,0.7,4.3,2.1C316.3,97.9,317.7,97.2,319.4,97.2z"/>
	<path class="st0" d="M347,102.9c0,1.3-0.5,2.4-1.4,3.3c-0.9,0.9-2.1,1.3-3.6,1.3h-8.5v0.1c0,1.7,0.9,2.5,2.8,2.5h10v2.8h-10
		c-1.9,0-3.4-0.5-4.5-1.5c-1-1-1.6-2.4-1.6-4.2v-5.4c0-1.4,0.5-2.5,1.4-3.3c0.9-0.9,2.1-1.3,3.7-1.3h6.7c1.5,0,2.8,0.4,3.7,1.3
		c0.9,0.9,1.4,2,1.4,3.3V102.9z M341.2,104.7c1.7,0,2.5-0.7,2.5-2.1v-0.5c0-1.4-0.8-2.1-2.5-2.1H336c-1.7,0-2.5,0.7-2.5,2.1v0.5
		c0,1.4,0.8,2.1,2.5,2.1H341.2z"/>
	<path class="st0" d="M351.3,98.5c0.9-0.8,2.3-1.3,4.3-1.3h6v2.8h-5.8c-1.8,0-2.7,0.8-2.7,2.5v10.4h-3.3v-10.8
		C349.8,100.6,350.3,99.3,351.3,98.5z"/>
	<path class="st0" d="M367.3,95.5c-0.4,0.4-0.9,0.5-1.5,0.5c-0.6,0-1.1-0.2-1.5-0.5c-0.4-0.4-0.6-0.8-0.6-1.4c0-0.6,0.2-1.1,0.6-1.5
		c0.4-0.4,0.9-0.6,1.5-0.6c0.6,0,1.1,0.2,1.5,0.6c0.4,0.4,0.6,0.9,0.6,1.5C368,94.6,367.8,95.1,367.3,95.5z M364.2,97.2h3.3v15.7
		h-3.3V97.2z"/>
	<path class="st0" d="M376.9,112.9c-1.9,0-3.5-0.6-4.6-1.7c-1.1-1.1-1.7-2.7-1.7-4.7v-2.9c0-2.1,0.6-3.6,1.7-4.7
		c1.1-1.1,2.6-1.7,4.6-1.7h10.4v2.8h-10.2c-1.2,0-2,0.4-2.6,1.1c-0.4,0.6-0.6,1.5-0.6,2.7v2.6c0,1.2,0.2,2,0.6,2.6
		c0.6,0.7,1.4,1.1,2.6,1.1h10.2v2.8H376.9z"/>
	<path class="st0" d="M391.5,111.6c-0.9-0.9-1.4-2-1.4-3.3v-1.1c0-1.4,0.5-2.5,1.4-3.3c0.9-0.9,2.1-1.3,3.6-1.3h8.5v-0.1
		c0-1.7-0.9-2.5-2.8-2.5h-9.5v-2.8h9.4c2,0,3.5,0.5,4.5,1.5c1.1,1,1.6,2.4,1.6,4.2v5.5c0,1.4-0.5,2.5-1.4,3.4
		c-0.9,0.7-2.1,1.1-3.7,1.1h-6.7C393.6,112.9,392.4,112.5,391.5,111.6z M395.9,105.4c-1.7,0-2.5,0.7-2.5,2.1v0.5
		c0,1.4,0.8,2.1,2.5,2.1h5.2c1.7,0,2.6-0.7,2.6-2.1v-0.5c0-1.4-0.9-2.1-2.6-2.1H395.9z"/>
</g>
</svg>
